<mxfile host="Electron" modified="2024-09-05T23:23:45.111Z" agent="Mozilla/5.0 (Windows NT 10.0; Win64; x64) AppleWebKit/537.36 (KHTML, like Gecko) draw.io/24.6.4 Chrome/124.0.6367.207 Electron/30.0.6 Safari/537.36" etag="WdREwY7_D3ChIMjJbyU0" version="24.6.4" type="device">
  <diagram name="Page-1" id="HrQYvHOT4DFlJ968eMbm">
    <mxGraphModel dx="600" dy="355" grid="1" gridSize="10" guides="1" tooltips="1" connect="1" arrows="1" fold="1" page="1" pageScale="1" pageWidth="850" pageHeight="1100" math="0" shadow="0">
      <root>
        <mxCell id="0" />
        <mxCell id="1" parent="0" />
        <mxCell id="oNb2-2rSWAqyWGa9Pkr6-28" value="" style="rounded=0;whiteSpace=wrap;html=1;fillColor=none;strokeWidth=1;" vertex="1" parent="1">
          <mxGeometry x="240" y="240" width="400" height="160" as="geometry" />
        </mxCell>
        <mxCell id="oNb2-2rSWAqyWGa9Pkr6-1" value="&lt;b style=&quot;font-size: 10px;&quot;&gt;Client Application&lt;/b&gt;" style="rounded=0;whiteSpace=wrap;html=1;fillColor=#f5f5f5;fontColor=#333333;strokeColor=#666666;fontSize=10;" vertex="1" parent="1">
          <mxGeometry x="370" y="150" width="100" height="30" as="geometry" />
        </mxCell>
        <mxCell id="oNb2-2rSWAqyWGa9Pkr6-14" style="edgeStyle=orthogonalEdgeStyle;rounded=0;orthogonalLoop=1;jettySize=auto;html=1;entryX=0.5;entryY=0;entryDx=0;entryDy=0;startArrow=classic;startFill=1;endSize=4;startSize=4;" edge="1" parent="1" source="oNb2-2rSWAqyWGa9Pkr6-2" target="oNb2-2rSWAqyWGa9Pkr6-3">
          <mxGeometry relative="1" as="geometry" />
        </mxCell>
        <mxCell id="oNb2-2rSWAqyWGa9Pkr6-2" value="HTTP Client" style="rounded=0;whiteSpace=wrap;html=1;fillColor=#f5f5f5;fontColor=#333333;strokeColor=#666666;fontSize=8;" vertex="1" parent="1">
          <mxGeometry x="380" y="180" width="80" height="10" as="geometry" />
        </mxCell>
        <mxCell id="oNb2-2rSWAqyWGa9Pkr6-3" value="API Gateway" style="rounded=0;whiteSpace=wrap;html=1;fillColor=#f5f5f5;fontColor=#333333;strokeColor=#666666;fontSize=8;" vertex="1" parent="1">
          <mxGeometry x="380" y="220" width="80" height="10" as="geometry" />
        </mxCell>
        <mxCell id="oNb2-2rSWAqyWGa9Pkr6-8" style="edgeStyle=orthogonalEdgeStyle;rounded=0;orthogonalLoop=1;jettySize=auto;html=1;exitX=0.25;exitY=1;exitDx=0;exitDy=0;entryX=0.5;entryY=0;entryDx=0;entryDy=0;startArrow=classic;startFill=1;endSize=4;startSize=4;" edge="1" parent="1" source="oNb2-2rSWAqyWGa9Pkr6-4" target="oNb2-2rSWAqyWGa9Pkr6-5">
          <mxGeometry relative="1" as="geometry">
            <Array as="points">
              <mxPoint x="395" y="300" />
              <mxPoint x="300" y="300" />
            </Array>
          </mxGeometry>
        </mxCell>
        <mxCell id="oNb2-2rSWAqyWGa9Pkr6-25" style="edgeStyle=orthogonalEdgeStyle;rounded=0;orthogonalLoop=1;jettySize=auto;html=1;strokeColor=#3399FF;strokeWidth=0.7;fontSize=10;endSize=4;startSize=4;dashed=1;" edge="1" parent="1" source="oNb2-2rSWAqyWGa9Pkr6-4" target="oNb2-2rSWAqyWGa9Pkr6-21">
          <mxGeometry relative="1" as="geometry">
            <Array as="points">
              <mxPoint x="590" y="260" />
              <mxPoint x="590" y="260" />
            </Array>
          </mxGeometry>
        </mxCell>
        <mxCell id="oNb2-2rSWAqyWGa9Pkr6-4" value="&lt;font style=&quot;font-size: 10px;&quot;&gt;&lt;span style=&quot;font-size: 10px;&quot;&gt;Gateway&lt;br style=&quot;font-size: 10px;&quot;&gt;Service&lt;/span&gt;&lt;/font&gt;" style="rounded=0;whiteSpace=wrap;html=1;fillColor=#f5f5f5;fontColor=#333333;strokeColor=#666666;fontStyle=1;fontSize=10;" vertex="1" parent="1">
          <mxGeometry x="370" y="230" width="100" height="40" as="geometry" />
        </mxCell>
        <mxCell id="oNb2-2rSWAqyWGa9Pkr6-49" style="edgeStyle=orthogonalEdgeStyle;rounded=0;orthogonalLoop=1;jettySize=auto;html=1;dashed=1;strokeWidth=0.7;strokeColor=#3399FF;endSize=4;startSize=4;" edge="1" parent="1" source="oNb2-2rSWAqyWGa9Pkr6-5" target="oNb2-2rSWAqyWGa9Pkr6-21">
          <mxGeometry relative="1" as="geometry">
            <Array as="points">
              <mxPoint x="300" y="380" />
            </Array>
          </mxGeometry>
        </mxCell>
        <mxCell id="oNb2-2rSWAqyWGa9Pkr6-5" value="&lt;font style=&quot;font-size: 10px;&quot;&gt;&lt;span style=&quot;font-size: 10px;&quot;&gt;User&lt;/span&gt;&lt;/font&gt;&lt;div style=&quot;font-size: 10px;&quot;&gt;&lt;font style=&quot;font-size: 10px;&quot;&gt;&lt;span style=&quot;font-size: 10px;&quot;&gt;Service&lt;/span&gt;&lt;/font&gt;&lt;/div&gt;" style="rounded=0;whiteSpace=wrap;html=1;fillColor=#f5f5f5;fontColor=#333333;strokeColor=#666666;fontStyle=1;fontSize=10;" vertex="1" parent="1">
          <mxGeometry x="260" y="320" width="80" height="40" as="geometry" />
        </mxCell>
        <mxCell id="oNb2-2rSWAqyWGa9Pkr6-9" style="edgeStyle=orthogonalEdgeStyle;rounded=0;orthogonalLoop=1;jettySize=auto;html=1;entryX=0.5;entryY=1;entryDx=0;entryDy=0;startArrow=classic;startFill=1;endSize=4;startSize=4;" edge="1" parent="1" source="oNb2-2rSWAqyWGa9Pkr6-6" target="oNb2-2rSWAqyWGa9Pkr6-4">
          <mxGeometry relative="1" as="geometry" />
        </mxCell>
        <mxCell id="oNb2-2rSWAqyWGa9Pkr6-26" style="edgeStyle=orthogonalEdgeStyle;rounded=0;orthogonalLoop=1;jettySize=auto;html=1;strokeColor=#3399FF;strokeWidth=0.7;fontSize=10;endSize=4;startSize=4;dashed=1;" edge="1" parent="1" target="oNb2-2rSWAqyWGa9Pkr6-21">
          <mxGeometry relative="1" as="geometry">
            <mxPoint x="420" y="350" as="sourcePoint" />
            <mxPoint x="620" y="370" as="targetPoint" />
            <Array as="points">
              <mxPoint x="420" y="370" />
            </Array>
          </mxGeometry>
        </mxCell>
        <mxCell id="oNb2-2rSWAqyWGa9Pkr6-6" value="&lt;font style=&quot;font-size: 10px;&quot;&gt;&lt;span style=&quot;font-size: 10px;&quot;&gt;Plotter&lt;/span&gt;&lt;/font&gt;&lt;div style=&quot;font-size: 10px;&quot;&gt;&lt;font style=&quot;font-size: 10px;&quot;&gt;&lt;span style=&quot;font-size: 10px;&quot;&gt;Service&lt;/span&gt;&lt;/font&gt;&lt;/div&gt;" style="rounded=0;whiteSpace=wrap;html=1;fillColor=#f5f5f5;fontColor=#333333;strokeColor=#666666;fontStyle=1;fontSize=10;" vertex="1" parent="1">
          <mxGeometry x="380" y="320" width="80" height="40" as="geometry" />
        </mxCell>
        <mxCell id="oNb2-2rSWAqyWGa9Pkr6-10" style="edgeStyle=orthogonalEdgeStyle;rounded=0;orthogonalLoop=1;jettySize=auto;html=1;entryX=0.75;entryY=1;entryDx=0;entryDy=0;startArrow=classic;startFill=1;endSize=4;startSize=4;" edge="1" parent="1" source="oNb2-2rSWAqyWGa9Pkr6-7" target="oNb2-2rSWAqyWGa9Pkr6-4">
          <mxGeometry relative="1" as="geometry">
            <Array as="points">
              <mxPoint x="540" y="300" />
              <mxPoint x="445" y="300" />
            </Array>
          </mxGeometry>
        </mxCell>
        <mxCell id="oNb2-2rSWAqyWGa9Pkr6-11" style="edgeStyle=orthogonalEdgeStyle;rounded=0;orthogonalLoop=1;jettySize=auto;html=1;startArrow=classic;startFill=1;endSize=4;startSize=4;dashed=1;strokeWidth=0.7;" edge="1" parent="1" source="oNb2-2rSWAqyWGa9Pkr6-7" target="oNb2-2rSWAqyWGa9Pkr6-6">
          <mxGeometry relative="1" as="geometry" />
        </mxCell>
        <mxCell id="oNb2-2rSWAqyWGa9Pkr6-24" style="edgeStyle=orthogonalEdgeStyle;rounded=0;orthogonalLoop=1;jettySize=auto;html=1;strokeColor=#3399FF;strokeWidth=0.7;fontSize=10;endSize=4;startSize=4;dashed=1;" edge="1" parent="1" source="oNb2-2rSWAqyWGa9Pkr6-7" target="oNb2-2rSWAqyWGa9Pkr6-21">
          <mxGeometry relative="1" as="geometry">
            <Array as="points">
              <mxPoint x="610" y="340" />
              <mxPoint x="610" y="340" />
            </Array>
          </mxGeometry>
        </mxCell>
        <mxCell id="oNb2-2rSWAqyWGa9Pkr6-7" value="&lt;font style=&quot;font-size: 10px;&quot;&gt;&lt;span style=&quot;font-size: 10px;&quot;&gt;Fitter&lt;/span&gt;&lt;/font&gt;&lt;div style=&quot;font-size: 10px;&quot;&gt;&lt;font style=&quot;font-size: 10px;&quot;&gt;&lt;span style=&quot;font-size: 10px;&quot;&gt;Service&lt;/span&gt;&lt;/font&gt;&lt;/div&gt;" style="rounded=0;whiteSpace=wrap;html=1;fillColor=#f5f5f5;fontColor=#333333;strokeColor=#666666;fontStyle=1;fontSize=10;" vertex="1" parent="1">
          <mxGeometry x="500" y="320" width="80" height="40" as="geometry" />
        </mxCell>
        <mxCell id="oNb2-2rSWAqyWGa9Pkr6-21" value="" style="rounded=0;whiteSpace=wrap;html=1;fillColor=none;strokeColor=#3399FF;strokeWidth=0.5;" vertex="1" parent="1">
          <mxGeometry x="610" y="250" width="20" height="140" as="geometry" />
        </mxCell>
        <mxCell id="oNb2-2rSWAqyWGa9Pkr6-23" value="Logging System" style="text;html=1;align=center;verticalAlign=middle;whiteSpace=wrap;rounded=0;fontColor=#3399FF;rotation=-90;fontSize=10;" vertex="1" parent="1">
          <mxGeometry x="560" y="310" width="120" height="20" as="geometry" />
        </mxCell>
        <mxCell id="oNb2-2rSWAqyWGa9Pkr6-29" value="Monolith" style="text;html=1;align=center;verticalAlign=middle;whiteSpace=wrap;rounded=0;fontSize=8;fontStyle=1" vertex="1" parent="1">
          <mxGeometry x="600" y="220" width="40" height="20" as="geometry" />
        </mxCell>
        <mxCell id="oNb2-2rSWAqyWGa9Pkr6-47" style="edgeStyle=orthogonalEdgeStyle;rounded=0;orthogonalLoop=1;jettySize=auto;html=1;dashed=1;strokeColor=#00CC00;strokeWidth=1;" edge="1" parent="1" source="oNb2-2rSWAqyWGa9Pkr6-39" target="oNb2-2rSWAqyWGa9Pkr6-28">
          <mxGeometry relative="1" as="geometry">
            <mxPoint x="540" y="400" as="targetPoint" />
            <Array as="points">
              <mxPoint x="520" y="450" />
            </Array>
          </mxGeometry>
        </mxCell>
        <mxCell id="oNb2-2rSWAqyWGa9Pkr6-48" style="edgeStyle=orthogonalEdgeStyle;rounded=0;orthogonalLoop=1;jettySize=auto;html=1;startArrow=classic;startFill=1;endArrow=none;endFill=0;dashed=1;strokeColor=#00CC00;strokeWidth=1;" edge="1" parent="1" source="oNb2-2rSWAqyWGa9Pkr6-39" target="oNb2-2rSWAqyWGa9Pkr6-28">
          <mxGeometry relative="1" as="geometry">
            <mxPoint x="510" y="475" as="sourcePoint" />
            <mxPoint x="300" y="400" as="targetPoint" />
            <Array as="points">
              <mxPoint x="320" y="450" />
            </Array>
          </mxGeometry>
        </mxCell>
        <mxCell id="oNb2-2rSWAqyWGa9Pkr6-64" value="" style="group" vertex="1" connectable="0" parent="1">
          <mxGeometry x="360" y="420" width="130" height="60" as="geometry" />
        </mxCell>
        <mxCell id="oNb2-2rSWAqyWGa9Pkr6-39" value="" style="rounded=0;whiteSpace=wrap;html=1;fillColor=#f5f5f5;fontColor=#333333;strokeColor=#666666;" vertex="1" parent="oNb2-2rSWAqyWGa9Pkr6-64">
          <mxGeometry width="130" height="60" as="geometry" />
        </mxCell>
        <mxCell id="oNb2-2rSWAqyWGa9Pkr6-42" value="&lt;font style=&quot;font-size: 10px;&quot; color=&quot;#333333&quot;&gt;&lt;span style=&quot;font-size: 10px;&quot;&gt;&lt;b style=&quot;font-size: 10px;&quot;&gt;Relational Database&lt;/b&gt;&lt;/span&gt;&lt;/font&gt;" style="text;html=1;align=center;verticalAlign=middle;whiteSpace=wrap;rounded=0;fontSize=10;" vertex="1" parent="oNb2-2rSWAqyWGa9Pkr6-64">
          <mxGeometry x="60" y="10" width="55" height="30" as="geometry" />
        </mxCell>
        <mxCell id="oNb2-2rSWAqyWGa9Pkr6-44" value="&lt;font style=&quot;font-size: 8px;&quot; color=&quot;#333333&quot;&gt;&lt;span style=&quot;font-size: 8px;&quot;&gt;Accounts&lt;/span&gt;&lt;/font&gt;" style="text;html=1;align=center;verticalAlign=middle;whiteSpace=wrap;rounded=0;fontSize=8;" vertex="1" parent="oNb2-2rSWAqyWGa9Pkr6-64">
          <mxGeometry x="65" y="40" width="50" height="10" as="geometry" />
        </mxCell>
        <mxCell id="oNb2-2rSWAqyWGa9Pkr6-63" value="" style="group" vertex="1" connectable="0" parent="oNb2-2rSWAqyWGa9Pkr6-64">
          <mxGeometry x="15" y="10" width="40" height="40" as="geometry" />
        </mxCell>
        <mxCell id="oNb2-2rSWAqyWGa9Pkr6-59" value="" style="shape=cylinder3;whiteSpace=wrap;html=1;boundedLbl=1;backgroundOutline=1;size=7.066680908203125;" vertex="1" parent="oNb2-2rSWAqyWGa9Pkr6-63">
          <mxGeometry y="10.666666666666666" width="40" height="29.333333333333332" as="geometry" />
        </mxCell>
        <mxCell id="oNb2-2rSWAqyWGa9Pkr6-61" value="" style="shape=cylinder3;whiteSpace=wrap;html=1;boundedLbl=1;backgroundOutline=1;size=7.066680908203125;" vertex="1" parent="oNb2-2rSWAqyWGa9Pkr6-63">
          <mxGeometry y="5.333333333333333" width="40" height="17.77777777777778" as="geometry" />
        </mxCell>
        <mxCell id="oNb2-2rSWAqyWGa9Pkr6-62" value="" style="shape=cylinder3;whiteSpace=wrap;html=1;boundedLbl=1;backgroundOutline=1;size=7.066680908203125;" vertex="1" parent="oNb2-2rSWAqyWGa9Pkr6-63">
          <mxGeometry width="40" height="17.77777777777778" as="geometry" />
        </mxCell>
      </root>
    </mxGraphModel>
  </diagram>
</mxfile>
